<?xml version="1.0" standalone="no"?>
<!DOCTYPE svg PUBLIC "-//W3C//DTD SVG 20010904//EN"
 "http://www.w3.org/TR/2001/REC-SVG-20010904/DTD/svg10.dtd">
<svg version="1.0" xmlns="http://www.w3.org/2000/svg"
 width="942.000000pt" height="675.000000pt" viewBox="0 0 942.000000 675.000000"
 preserveAspectRatio="xMidYMid meet">
<metadata>
Created by potrace 1.10, written by Peter Selinger 2001-2011
</metadata>
<g transform="translate(0.000000,675.000000) scale(0.100000,-0.100000)"
fill="#000000" stroke="none">
<path d="M2300 5459 c-190 -32 -354 -171 -404 -344 -10 -33 -24 -80 -32 -105
-7 -25 -23 -88 -34 -140 -12 -52 -25 -108 -31 -125 -5 -16 -21 -77 -35 -135
-13 -58 -32 -134 -41 -170 -8 -36 -22 -92 -30 -125 -8 -33 -18 -76 -23 -95
-18 -77 -55 -223 -75 -295 -14 -50 -27 -104 -46 -200 -6 -27 -15 -54 -20 -59
-5 -6 -9 -19 -9 -30 0 -12 -12 -66 -26 -121 -28 -110 -34 -134 -59 -245 -9
-41 -20 -84 -24 -95 -23 -58 -41 -163 -41 -242 1 -242 156 -432 407 -497 57
-14 243 -16 1930 -16 1747 0 1870 1 1910 17 66 28 78 58 77 188 0 61 -6 139
-13 175 -6 36 -16 106 -21 155 -6 50 -16 149 -24 220 -8 72 -17 137 -20 145
-3 8 -10 58 -15 110 -31 304 -41 387 -46 401 -3 8 -10 53 -14 99 -35 331 -42
393 -46 401 -3 5 -10 52 -15 106 -5 54 -19 175 -30 268 -12 94 -25 208 -31
255 -5 47 -13 112 -18 144 -13 102 -39 97 437 96 l407 -1 32 35 c45 49 51 94
22 153 -43 85 151 78 -2014 79 -1116 1 -1953 -2 -1985 -7z m1221 -396 c-7 -60
-19 -162 -27 -228 -8 -66 -19 -158 -23 -205 -5 -47 -14 -114 -20 -150 -6 -36
-15 -113 -19 -172 -5 -60 -15 -114 -22 -123 -11 -13 -97 -15 -736 -15 l-724 0
0 24 c0 12 4 36 9 52 5 16 19 72 30 124 12 52 26 106 30 120 5 14 17 61 26
105 9 44 23 98 30 120 7 22 20 74 29 115 51 227 68 261 166 330 l35 25 600 5
c469 4 603 2 615 -7 12 -11 12 -28 1 -120z m1591 113 c4 -6 8 -29 8 -51 0 -22
5 -56 10 -75 6 -19 15 -80 20 -135 22 -221 51 -456 70 -581 6 -34 10 -84 10
-113 l0 -51 -759 0 c-595 0 -761 3 -769 13 -7 8 -7 29 -1 62 4 28 13 95 18
150 22 211 31 289 36 306 3 10 13 82 21 161 30 287 33 311 41 319 9 9 1199 18
1258 10 17 -2 33 -9 37 -15z m-1738 -1295 c3 -4 1 -44 -5 -87 -5 -43 -13 -122
-18 -174 -5 -52 -14 -115 -20 -140 -5 -25 -15 -97 -21 -160 -6 -63 -18 -167
-26 -230 -7 -63 -18 -153 -24 -200 -5 -47 -13 -107 -18 -135 l-7 -50 -700 -3
-700 -2 -53 26 c-50 25 -94 70 -122 123 -17 33 -18 136 -2 191 28 94 41 147
57 220 9 41 23 98 30 125 8 28 26 97 40 155 37 149 41 166 61 255 10 44 23 83
28 87 15 11 1494 10 1500 -1z m1902 -51 c7 -30 13 -71 14 -90 0 -19 9 -105 20
-190 36 -272 39 -301 60 -490 11 -102 25 -210 30 -241 6 -30 10 -70 10 -87 l0
-32 -944 0 c-934 0 -945 0 -951 20 -3 11 -3 24 0 30 3 6 11 52 16 103 5 50 14
117 19 147 5 30 19 141 30 245 11 105 25 217 30 250 5 33 17 125 25 205 9 80
18 155 21 168 l4 22 802 -2 801 -3 13 -55z"/>
<path d="M6680 5081 c-88 -18 -164 -81 -193 -161 -10 -26 -17 -76 -17 -115 0
-39 -4 -75 -8 -81 -4 -6 -38 -14 -77 -18 -137 -14 -246 -92 -312 -226 l-28
-55 0 -1456 c0 -1065 3 -1460 11 -1470 6 -8 15 -25 19 -38 9 -31 65 -112 90
-131 61 -47 128 -78 187 -89 86 -15 1280 -15 1361 -1 85 16 139 44 198 103 58
57 78 91 103 174 14 46 16 198 16 1455 0 1304 -2 1407 -18 1458 -51 162 -167
259 -330 275 -39 4 -75 12 -80 19 -4 6 -9 54 -12 106 -5 87 -8 99 -40 147 -36
55 -82 84 -160 102 -50 12 -654 13 -710 2z m638 -300 c2 -12 1 -34 -2 -47 l-6
-24 -275 0 c-267 0 -275 1 -285 21 -6 11 -8 33 -5 50 l7 29 281 -2 282 -3 3
-24z m400 -384 l32 -33 0 -1388 c0 -1549 6 -1426 -70 -1460 -33 -14 -104 -16
-636 -16 -364 0 -613 4 -635 10 -19 5 -47 23 -62 38 l-27 28 2 1402 3 1402 29
25 29 25 652 0 651 0 32 -33z"/>
<path d="M6515 4288 c-43 -15 -65 -37 -86 -86 -17 -39 -19 -71 -18 -290 0
-234 1 -249 22 -292 16 -32 34 -51 62 -65 38 -19 60 -20 540 -20 547 0 527 -2
585 60 l25 27 3 283 c3 315 2 322 -60 367 l-33 23 -505 2 c-338 1 -515 -2
-535 -9z m853 -270 c14 -14 17 -175 4 -196 -7 -9 -82 -12 -343 -10 l-334 3 -3
99 c-2 73 1 102 10 108 22 13 652 10 666 -4z"/>
<path d="M6560 3342 c-36 -4 -82 -24 -100 -42 -43 -43 -50 -89 -50 -338 0
-273 7 -311 68 -353 l36 -24 500 -3 c336 -2 513 0 538 8 24 7 47 24 67 52 l31
42 0 275 c0 256 -1 278 -20 308 -42 70 -21 67 -560 73 -267 3 -496 4 -510 2z
m814 -288 c9 -23 7 -177 -2 -192 -7 -9 -82 -12 -343 -10 l-334 3 -3 94 c-1 52
-1 100 2 108 4 10 71 13 340 13 295 0 335 -2 340 -16z"/>
<path d="M6512 2374 c-91 -40 -102 -79 -102 -373 0 -215 2 -243 20 -283 44
-101 37 -100 633 -96 l498 3 45 47 45 48 -3 289 -3 289 -25 27 c-14 15 -42 36
-62 46 -35 18 -64 19 -525 18 -399 0 -494 -3 -521 -15z m868 -367 c0 -59 -4
-97 -12 -105 -14 -14 -644 -17 -666 -4 -9 6 -12 35 -10 108 l3 99 325 5 c179
3 333 1 343 -3 14 -7 17 -22 17 -100z"/>
<path d="M3295 2162 c-58 -30 -81 -118 -49 -185 32 -67 29 -67 567 -67 371 0
487 -3 500 -12 14 -12 17 -47 19 -305 3 -288 3 -292 26 -316 44 -46 133 -56
190 -20 47 29 52 62 52 356 0 199 3 276 12 285 9 9 134 12 500 12 532 0 526
-1 563 56 25 39 25 122 0 156 -47 62 37 58 -1212 57 -1014 -2 -1141 -3 -1168
-17z"/>
</g>
</svg>
